<svg width="100" height="100" viewBox="0 0 100 100" fill="none" xmlns="http://www.w3.org/2000/svg">
<path d="M2.54297 5.85158C-0.765626 5.85158 -0.765626 0.76178 2.54297 0.76178H11.4492C16.539 0.76178 21.1172 4.57818 21.8832 9.92198L22.391 14.504H93.383C97.7072 14.504 100.762 18.3204 99.7424 22.3907L93.6369 49.1097C91.8557 56.7425 85.2385 61.8327 77.6059 61.8327L29.2579 62.5944L30.0196 66.1569C30.2735 68.9577 32.5626 70.9928 35.3634 70.9928H83.9654C87.274 70.9928 87.274 76.0826 83.9654 76.0826H35.3634C30.0196 76.0826 25.6954 72.2662 24.9294 66.9224L16.7888 10.4344C16.5349 7.8914 14.2458 5.8524 11.445 5.8524H2.5388L2.54297 5.85158ZM23.152 19.5936L28.7497 57.5076L77.6047 56.7459C82.9485 56.7459 87.2727 53.1834 88.5457 48.0936L94.9051 21.3746C95.159 20.3551 94.3973 19.5934 93.3778 19.5934H23.1478L23.152 19.5936Z" fill="white"/>
<path d="M40.711 79.391C46.0548 79.391 50.6329 83.7152 50.6329 89.3129C50.6329 94.6567 46.0509 99.2348 40.711 99.2348C35.1133 99.2348 30.7891 94.6528 30.7891 89.3129C30.7891 83.7152 35.1133 79.391 40.711 79.391V79.391ZM40.711 84.4808C37.9102 84.4808 35.8751 86.516 35.8751 89.3167C35.8751 91.8597 37.9103 94.1526 40.711 94.1526C43.254 94.1526 45.5469 91.8635 45.5469 89.3167C45.5469 86.5159 43.2578 84.4808 40.711 84.4808Z" fill="white"/>
<path d="M74.3011 79.391C79.8988 79.391 84.223 83.7152 84.223 89.3129C84.223 94.6567 79.8988 99.2348 74.3011 99.2348C68.9573 99.2348 64.6331 94.6528 64.6331 89.3129C64.6331 83.7152 68.9573 79.391 74.3011 79.391V79.391ZM74.3011 84.4808C71.7581 84.4808 69.7191 86.516 69.7191 89.3167C69.7191 91.8597 71.7543 94.1526 74.3011 94.1526C77.1019 94.1526 79.137 91.8635 79.137 89.3167C79.137 86.5159 77.1018 84.4808 74.3011 84.4808Z" fill="white"/>
</svg>
