<svg width="100" height="100" viewBox="0 0 100 100" fill="none" xmlns="http://www.w3.org/2000/svg">
<path d="M78.199 2.5H31.898C23.7964 2.5 17.199 9.1016 17.199 17.199V19.3982H10.699C8.69901 19.3982 7.09741 20.9998 7.09741 22.9998V26.9998C7.09741 28.9998 8.69901 30.6014 10.699 30.6014H17.199V44.3004H10.699C8.69901 44.3004 7.09741 45.902 7.09741 47.902V51.902C7.09741 53.902 8.69901 55.5036 10.699 55.5036H17.199V69.2026H10.699C8.69901 69.2026 7.09741 70.8042 7.09741 72.8042V76.8042C7.09741 78.8042 8.69901 80.4058 10.699 80.4058H17.199V82.605C17.199 90.7066 23.8006 97.304 31.898 97.304H78.199C86.3006 97.304 92.898 90.7024 92.898 82.605V17.199C92.898 9.1013 86.3003 2.5 78.199 2.5V2.5ZM85.699 82.801C85.699 86.9026 82.3006 90.301 78.199 90.301H31.898C27.7964 90.301 24.398 86.9026 24.398 82.801V17.199C24.398 13.0974 27.7964 9.699 31.898 9.699H78.199C82.3006 9.699 85.699 13.0974 85.699 17.199V82.801Z" fill="white"/>
<path d="M66.4999 50.301C63.3983 52.9026 59.3983 54.5002 55.1019 54.5002C50.8011 54.5002 46.8011 52.8986 43.7039 50.301C38.3055 54.5002 35.6023 61.801 35.6023 70.199C35.6023 76.3982 74.7043 76.3982 74.7043 70.199C74.6027 61.8006 71.8996 54.5 66.5012 50.301H66.4999Z" fill="white"/>
<path d="M66.8009 36.801C66.8009 43.2619 61.5626 48.5 55.1019 48.5C48.6371 48.5 43.3989 43.2617 43.3989 36.801C43.3989 30.3401 48.6372 25.102 55.1019 25.102C61.5628 25.102 66.8009 30.3403 66.8009 36.801Z" fill="white"/>
</svg>
