<svg width="100" height="100" viewBox="0 0 100 100" fill="none" xmlns="http://www.w3.org/2000/svg">
<path fill-rule="evenodd" clip-rule="evenodd" d="M12.258 12.258C-4.086 28.598 -4.086 55.09 12.258 71.43C27.754 86.926 52.36 87.7 68.797 73.805L91.551 96.559C92.9299 97.9418 95.1838 97.9418 96.5588 96.559C97.9416 95.184 97.9416 92.9301 96.5588 91.5512L73.8048 68.7972C87.6998 52.3592 86.9218 27.7542 71.4298 12.2582C55.0898 -4.08582 28.5938 -4.08582 12.2578 12.2582L12.258 12.258ZM17.2656 17.266C30.8206 3.71098 52.8676 3.71098 66.4216 17.266C79.0816 29.926 79.9526 50.551 68.3982 64.227L66.488 66.4887L64.2263 68.3989C50.5503 79.9539 29.9253 79.0829 17.2653 66.4223C3.7103 52.8673 3.7103 30.8203 17.2653 17.2663" fill="#424242"/>
</svg>
